<svg viewBox="0 0 100 172" xmlns="http://www.w3.org/2000/svg">
  <ellipse cx="50" cy="169" rx="16" ry="3.5" fill="rgba(44,36,32,.12)"/>

  <!-- LONG HAIR -->
  <path d="M26 33 Q19 6 50 3 Q81 6 74 33 Q82 55 84 85 Q86 112 76 128 Q65 140 55 143 Q52 145 50 146 Q48 145 45 143 Q35 140 24 128 Q14 112 16 85 Q18 55 26 33Z" fill="#9C240F"/>
  <path d="M30 20 Q35 7 50 5 Q65 7 70 20 Q62 14 50 15 Q38 14 30 20Z" fill="#C13320"/>
  <path d="M40 4 Q37 16 37 25" stroke="#7A1C0C" stroke-width="1.6" fill="none" stroke-linecap="round"/>
  <path d="M50 3 Q48 14 49 23" stroke="#7A1C0C" stroke-width="1.6" fill="none" stroke-linecap="round"/>
  <path d="M60 4 Q63 16 63 25" stroke="#7A1C0C" stroke-width="1.6" fill="none" stroke-linecap="round"/>

  <!-- neck -->
  <rect x="45" y="51" width="10" height="12" rx="3.5" fill="#F2BF98"/>

  <!-- HEAD -->
  <circle cx="50" cy="32" r="21" fill="#F2BF98"/>

  <!-- hair front -->
  <path d="M29 21 Q32 5 50 3 Q68 5 71 21 Q62 13 50 15 Q38 13 29 21Z" fill="#C13320"/>
  <path d="M29 21 Q24 29 26 38 Q28 29 31 26Z" fill="#B02B1B"/>
  <path d="M71 21 Q76 29 74 38 Q72 29 69 26Z" fill="#B02B1B"/>

  <!-- ears -->
  <ellipse cx="29" cy="34" rx="4" ry="5" fill="#F2BF98"/>
  <ellipse cx="71" cy="34" rx="4" ry="5" fill="#F2BF98"/>

  <!-- EYES -->
  <path d="M34 30 Q41 25 48 30 Q43.5 36.5 41 36.5 Q38.5 36.5 34 30Z" fill="white"/>
  <path d="M52 30 Q59 25 66 30 Q61.5 36.5 59 36.5 Q56.5 36.5 52 30Z" fill="white"/>
  <circle cx="41" cy="31.5" r="4" fill="#5A8838"/>
  <circle cx="59" cy="31.5" r="4" fill="#5A8838"/>
  <circle cx="41.3" cy="32" r="2.3" fill="#1a1a1a"/>
  <circle cx="59.3" cy="32" r="2.3" fill="#1a1a1a"/>
  <circle cx="42.7" cy="30.4" r="1.1" fill="white"/>
  <circle cx="60.7" cy="30.4" r="1.1" fill="white"/>
  <path d="M34 30 Q41 25.5 48 30" stroke="#1C0A04" stroke-width="1.5" fill="none" stroke-linecap="round"/>
  <path d="M52 30 Q59 25.5 66 30" stroke="#1C0A04" stroke-width="1.5" fill="none" stroke-linecap="round"/>
  <!-- lashes -->
  <line x1="35" y1="28.5" x2="33" y2="25" stroke="#1C0A04" stroke-width="1.2" stroke-linecap="round"/>
  <line x1="38.5" y1="26.5" x2="37.5" y2="23" stroke="#1C0A04" stroke-width="1.2" stroke-linecap="round"/>
  <line x1="41.5" y1="25.5" x2="41.5" y2="22" stroke="#1C0A04" stroke-width="1.2" stroke-linecap="round"/>
  <line x1="44.5" y1="26.5" x2="45.5" y2="23" stroke="#1C0A04" stroke-width="1.2" stroke-linecap="round"/>
  <line x1="47" y1="28.5" x2="49" y2="26" stroke="#1C0A04" stroke-width="1.2" stroke-linecap="round"/>
  <line x1="53" y1="28.5" x2="51.5" y2="26" stroke="#1C0A04" stroke-width="1.2" stroke-linecap="round"/>
  <line x1="56" y1="26.5" x2="55" y2="23" stroke="#1C0A04" stroke-width="1.2" stroke-linecap="round"/>
  <line x1="59.5" y1="25.5" x2="59.5" y2="22" stroke="#1C0A04" stroke-width="1.2" stroke-linecap="round"/>
  <line x1="62.5" y1="26.5" x2="63.5" y2="23" stroke="#1C0A04" stroke-width="1.2" stroke-linecap="round"/>
  <line x1="65" y1="28.5" x2="67" y2="26" stroke="#1C0A04" stroke-width="1.2" stroke-linecap="round"/>
  <!-- brows -->
  <path d="M34.5 24 Q41 20.5 47 23.5" stroke="#6B2D10" stroke-width="2.2" fill="none" stroke-linecap="round"/>
  <path d="M53 23.5 Q59 20.5 65.5 24" stroke="#6B2D10" stroke-width="2.2" fill="none" stroke-linecap="round"/>

  <!-- blush -->
  <ellipse cx="33" cy="38" rx="5.5" ry="3" fill="#F07050" opacity=".22"/>
  <ellipse cx="67" cy="38" rx="5.5" ry="3" fill="#F07050" opacity=".22"/>

  <!-- nose -->
  <path d="M47.5 42 Q50 45 52.5 42" stroke="#D48A65" stroke-width="1.2" fill="none" stroke-linecap="round"/>

  <!-- lips -->
  <path d="M43.5 47 Q47 44.5 50 45 Q53 44.5 56.5 47" stroke="#C04035" stroke-width="1.4" fill="none" stroke-linecap="round"/>
  <path d="M43.5 47 Q50 52.5 56.5 47" stroke="#C04035" stroke-width="1.9" fill="none" stroke-linecap="round"/>
  <path d="M43.5 47 Q47 44.5 50 45 Q53 44.5 56.5 47 Q50 52.5 43.5 47Z" fill="#E06055" opacity=".3"/>

  <!-- BODY -->
  <path d="M30 58 Q22 75 24 94 Q25 110 31 116 L69 116 Q75 110 76 94 Q78 75 70 58 Q61 53 50 55 Q39 53 30 58Z" fill="#FDFAF6"/>
  <!-- blazer left -->
  <path d="M30 58 Q35 53 43 56 L40 76 Q31 86 29 97 Q28 106 33 113 L33 116 L31 116 Q25 110 24 94 Q22 78 30 66Z" fill="#4A6741"/>
  <path d="M33 116 L40 116 L44 97 L40 76 Q31 86 29 97 Q28 106 33 113Z" fill="#4A6741"/>
  <!-- blazer right -->
  <path d="M70 58 Q65 53 57 56 L60 76 Q69 86 71 97 Q72 106 67 113 L67 116 L69 116 Q75 110 76 94 Q78 78 70 66Z" fill="#4A6741"/>
  <path d="M67 116 L60 116 L56 97 L60 76 Q69 86 71 97 Q72 106 67 113Z" fill="#4A6741"/>
  <!-- blazer shadow -->
  <path d="M40 76 L44 97 L40 116 L36 116 L32 100 L29 88 L30 76 L36 72Z" fill="#3a5632" opacity=".45"/>
  <path d="M60 76 L56 97 L60 116 L64 116 L68 100 L71 88 L70 76 L64 72Z" fill="#3a5632" opacity=".45"/>
  <!-- collar / lapels -->
  <path d="M43 56 L50 68 L57 56 Q53 52 50 54 Q47 52 43 56Z" fill="#FDFAF6"/>
  <path d="M43 56 L39 66 L42 70 L50 68Z" fill="#3a5632"/>
  <path d="M57 56 L61 66 L58 70 L50 68Z" fill="#3a5632"/>
  <path d="M42 70 L50 68 L58 70 L54 116 L46 116Z" fill="#FDFAF6"/>
  <!-- buttons -->
  <circle cx="50" cy="83" r="1.8" fill="#2d4228"/>
  <circle cx="50" cy="96" r="1.8" fill="#2d4228"/>
  <circle cx="50" cy="109" r="1.8" fill="#2d4228"/>

  <!-- ARMS -->
  <path d="M30 65 Q18 79 20 98" stroke="#4A6741" stroke-width="9.5" stroke-linecap="round" fill="none"/>
  <ellipse cx="20" cy="101" rx="6" ry="7" fill="#F2BF98"/>
  <path d="M70 65 Q82 79 80 98" stroke="#4A6741" stroke-width="9.5" stroke-linecap="round" fill="none"/>
  <ellipse cx="80" cy="101" rx="6" ry="7" fill="#F2BF98"/>

  <!-- JEANS -->
  <path d="M35 116 L29 162 L47 162 L50 139 L53 162 L71 162 L65 116Z" fill="#4878B8"/>
  <path d="M50 116 L50 162" stroke="#3a6aaa" stroke-width=".8" fill="none" opacity=".3"/>
  <path d="M38 121 Q41 119 45 121" stroke="#3a6aaa" stroke-width="1.2" fill="none" stroke-linecap="round"/>
  <path d="M38 119 Q35 138 34 155" stroke="#6a9ed4" stroke-width="1.5" fill="none" opacity=".22" stroke-linecap="round"/>

  <!-- SHOES -->
  <path d="M17 159 Q28 152 47 157 L47 165 Q28 165 17 165Z" fill="#2C2420"/>
  <path d="M83 159 Q72 152 53 157 L53 165 Q72 165 83 165Z" fill="#2C2420"/>
  <path d="M20 157 Q30 152 42 155" stroke="#4a3835" stroke-width=".8" fill="none" stroke-linecap="round"/>
  <path d="M80 157 Q70 152 58 155" stroke="#4a3835" stroke-width=".8" fill="none" stroke-linecap="round"/>
</svg>
